<svg width="261" height="66" viewBox="0 0 261 66" fill="none" xmlns="http://www.w3.org/2000/svg" xmlns:xlink="http://www.w3.org/1999/xlink">
<symbol id="logo-symbol-wordmark">
<path d="M95,48c-3.2,0-6-.5-8.6-1.6-2.5-1.1-4.7-2.7-6.6-4.6-1.8-1.9-3.2-4.2-4.2-6.7-1-2.5-1.4-5.2-1.4-8.1s.7-6.6,2-9.2c1.4-2.6,3.2-4.8,5.5-6.5,2.3-1.8,4.8-3.1,7.5-4,2.7-.9,5.4-1.3,8.1-1.3s6.1.6,8.7,1.8c2.6,1.1,4.8,2.7,6.6,4.6,1.8,1.9,3.2,4.1,4.1,6.6,1,2.5,1.4,5,1.4,7.6s-.6,5.8-1.8,8.4c-1.2,2.6-2.9,4.9-5.1,6.8-2.1,1.9-4.6,3.5-7.4,4.6-2.8,1.1-5.7,1.6-8.8,1.6ZM97.2,46.4c2.5,0,4.7-.7,6.6-2.1,1.9-1.4,3.4-3.4,4.5-6.1,1.1-2.7,1.7-5.9,1.7-9.8s-.6-7.5-1.8-10.6c-1.2-3.1-3-5.6-5.3-7.3-2.3-1.8-5-2.7-8.2-2.7s-7.1,1.5-9.2,4.5c-2.2,3-3.2,7.1-3.2,12.4s.4,6.1,1.1,8.7c.7,2.6,1.8,4.9,3.1,6.9,1.4,1.9,2.9,3.5,4.7,4.5,1.8,1,3.8,1.6,6,1.6ZM103.1,27l-3.1.4h0c-2.2.5-2.1.8-2.4,3.4,0,.2,0,.3,0,.5h0s-.3,3.7-.3,3.7l-.3-3.7h0c0-.2,0-.4,0-.5-.3-2.6-.3-2.9-2.4-3.4h0s-3.1-.4-3.1-.4l3.1-.4h0c2.2-.5,2.1-.8,2.4-3.4,0-.2,0-.3,0-.5h0s.3-3.7.3-3.7l.3,3.7h0c0,.2,0,.4,0,.5.3,2.6.3,2.9,2.4,3.4h0s3.1.4,3.1.4h0ZM242.5,16.6V7.8h.6v8.8c0,.7.1,1.2.4,1.6.3.4.6.6,1.1.6s0,0,0,.1,0,.1,0,.1c-.3,0-.6,0-.8,0-.3,0-.6,0-.9,0s-.7,0-1.1,0c-.3,0-.7,0-1,0s0,0,0-.1,0-.1,0-.1c.5,0,1-.2,1.3-.6.3-.4.5-.9.5-1.6ZM251.9,19.2s0,0,0,0c0,0,0,0-.1,0l-9.1-10.4c-.4-.5-.8-.8-1.1-1-.3-.2-.6-.3-.9-.3s0,0,0-.1,0-.1,0-.1c.2,0,.5,0,.8,0,.3,0,.5,0,.7,0,.4,0,.8,0,1.2,0,.4,0,.6,0,.8,0s.3,0,.4.2c0,.1.3.4.6.7l6.8,7.8v3ZM251.9,9.7v9.4l-.5-.6v-8.9c0-.7-.1-1.2-.4-1.6-.3-.4-.6-.6-1.1-.6s0,0,0-.1,0-.1,0-.1c.3,0,.5,0,.8,0,.3,0,.6,0,1,0s.7,0,1,0c.3,0,.6,0,.9,0s0,0,0,.1,0,.1,0,.1c-.5,0-.9.2-1.2.6-.3.4-.4.9-.4,1.6ZM238.9,18.9h-8.2s0,0,0-.1,0-.1,0-.1c.4,0,.7,0,.8,0,.2,0,.3-.2.4-.4,0-.2,0-.5,0-.8v-8.5c0-.4,0-.6,0-.8,0-.2-.2-.3-.4-.4-.2,0-.5-.1-.8-.1s0,0,0-.1,0-.1,0-.1h7.8c.1,0,.2,0,.2.2v2.5s0,0,0,0c0,0-.1,0-.1,0-.2-.7-.5-1.3-1-1.6-.5-.3-1.1-.5-1.8-.5h-.6c-.2,0-.4,0-.6.1-.2,0-.3.2-.4.3,0,.1-.1.3-.1.6v8.5c0,.2,0,.4,0,.6,0,.2.2.3.3.4.1,0,.3.1.5.1h.6c1,0,1.7-.2,2.3-.6.6-.4,1-1,1.3-1.8,0,0,0,0,.1,0,0,0,.1,0,.1,0,0,.4,0,.8-.1,1.3,0,.5,0,.9,0,1.3s0,.3-.3.3ZM237.9,14.8c0-.5-.2-.9-.6-1.2-.4-.3-.9-.4-1.7-.4h-2.5v-.5h2.5c.7,0,1.3-.1,1.6-.4.4-.3.6-.6.6-1s0,0,0,0,.1,0,.1,0c0,.4,0,.7,0,1v.7c0,.3,0,.6,0,.9,0,.3,0,.6,0,1s0,0-.1,0-.1,0-.1,0ZM226.9,18.9c-.2,0-.5-.2-.9-.7-.4-.5-.9-1.2-1.5-2.1-.6-.9-1.2-2-2-3.2l1.7-.5c1,1.6,1.8,2.8,2.5,3.7.7.9,1.3,1.6,1.9,2,.5.4,1.1.6,1.5.6s0,0,0,.1,0,.1,0,.1h-3.3ZM222.7,7.3c1.1,0,2,.2,2.6.6.6.4.9,1,.9,1.7s-.1.9-.4,1.3c-.2.4-.5.8-.9,1.1-.4.3-.8.6-1.3.8-.5.2-.9.3-1.4.3h-.5c-.2,0-.3,0-.5,0v4.3c0,.4,0,.6,0,.8,0,.2.2.3.4.4.2,0,.5,0,.8,0s0,0,0,.1,0,.1,0,.1c-.3,0-.7,0-1.1,0-.4,0-.8,0-1.3,0s-.9,0-1.3,0c-.4,0-.8,0-1.1,0s0,0,0-.1,0-.1,0-.1c.4,0,.7,0,.8,0,.2,0,.3-.2.4-.4,0-.2.1-.5.1-.8v-8.5c0-.4,0-.6,0-.8,0-.2-.2-.3-.4-.4-.2,0-.5-.1-.8-.1s0,0,0-.1,0-.1,0-.1c.3,0,.7,0,1.1,0,.4,0,.8,0,1.3,0s.8,0,1.2,0c.4,0,.9,0,1.3,0ZM224.1,10.4c0-.7,0-1.3-.2-1.7-.1-.4-.4-.6-.6-.8-.3-.1-.6-.2-.9-.2s-.5,0-.7.1c-.2,0-.3.2-.4.4,0,.2-.1.4-.1.7v3.7c.2,0,.4,0,.6,0,.2,0,.4,0,.5,0,.7,0,1.1-.2,1.4-.5.3-.3.4-.9.4-1.8ZM210.1,19c-.4,0-.9,0-1.5,0-.6,0-1.1,0-1.6,0s-.9,0-1.3,0c-.4,0-.8,0-1.1,0s0,0,0-.1,0-.1,0-.1c.4,0,.7,0,.8,0,.2,0,.3-.2.4-.4,0-.2.1-.5.1-.8v-8.5c0-.4,0-.6,0-.8,0-.2-.2-.3-.4-.4-.2,0-.5-.1-.8-.1s0,0,0-.1,0-.1,0-.1c.3,0,.7,0,1.1,0,.4,0,.8,0,1.3,0s.9,0,1.5,0c.5,0,1,0,1.4,0,1.3,0,2.4.2,3.3.7.9.5,1.7,1.2,2.2,2,.5.8.8,1.8.8,2.9s-.2,1.8-.5,2.5c-.3.7-.8,1.4-1.3,1.9-.6.5-1.2.9-2,1.2-.7.3-1.5.4-2.3.4ZM209.9,18.6c.8,0,1.5-.2,2.1-.6.6-.4,1.1-1,1.4-1.8.3-.8.5-1.7.5-2.8s-.2-2-.5-2.8c-.3-.8-.8-1.5-1.3-2-.6-.5-1.3-.8-2.1-.8s-1.2,0-1.5.2c-.3.1-.5.5-.5,1v8.3c0,.5.1.8.4,1,.2.2.8.3,1.5.3ZM198,8.9v8.5c0,.3,0,.5,0,.7,0,.1.1.2.3.3.2,0,.4,0,.7,0h.6c1,0,1.8-.3,2.5-.8.7-.5,1.2-1.2,1.4-2.1,0,0,0,0,.1,0,0,0,0,0,0,0,0,.4,0,.9-.1,1.5,0,.6,0,1.1,0,1.6s0,.3-.3.3h-8.7s0,0,0-.1,0-.1,0-.1c.4,0,.7,0,.8,0,.2,0,.3-.2.4-.4,0-.2.1-.5.1-.8v-8.5c0-.4,0-.6-.1-.8,0-.2-.2-.3-.4-.4-.2,0-.5-.1-.8-.1s0,0,0-.1,0-.1,0-.1c.3,0,.6,0,1.1,0,.4,0,.8,0,1.3,0s.9,0,1.3,0c.4,0,.7,0,1.1,0s0,0,0,.1,0,.1,0,.1c-.4,0-.7,0-.8.1-.2,0-.3.2-.4.4,0,.2,0,.5,0,.8ZM191.9,17.4c0,.4,0,.6,0,.8,0,.2.2.3.4.4.2,0,.5,0,.8,0s0,0,0,.1,0,.1,0,.1c-.3,0-.7,0-1.1,0-.4,0-.8,0-1.3,0s-.9,0-1.3,0c-.4,0-.8,0-1.1,0s0,0,0-.1,0-.1,0-.1c.4,0,.7,0,.8,0,.2,0,.3-.2.4-.4,0-.2.1-.5.1-.8v-8.5c0-.4,0-.6-.1-.8,0-.2-.2-.3-.4-.4-.2,0-.5-.1-.8-.1s0,0,0-.1,0-.1,0-.1c.3,0,.7,0,1.1,0,.4,0,.8,0,1.3,0s.9,0,1.3,0c.4,0,.8,0,1.1,0s0,0,0,.1,0,.1,0,.1c-.4,0-.7,0-.8.1-.2,0-.3.2-.4.4,0,.2,0,.5,0,.8v8.5ZM183.6,8.9c0-.4,0-.6-.1-.8,0-.2-.2-.3-.4-.4-.2,0-.6-.1-1-.1s0,0,0-.1,0-.1,0-.1c.3,0,.7,0,1.1,0,.4,0,.9,0,1.5,0s.9,0,1.3,0c.4,0,.8,0,1.1,0s0,0,0,.1,0,.1,0,.1c-.4,0-.7,0-.9.1-.2,0-.4.2-.4.4,0,.2,0,.4,0,.8v8.5c0,.4,0,.6,0,.8,0,.2.2.3.4.4.2,0,.5,0,.9,0s0,0,0,.1,0,.1,0,.1c-.3,0-.7,0-1.1,0-.4,0-.9,0-1.3,0s-1.1,0-1.5,0c-.4,0-.8,0-1.1,0s0,0,0-.1,0-.1,0-.1c.4,0,.8,0,1,0,.2,0,.4-.2.4-.4,0-.2.1-.5.1-.8v-8.5ZM176.6,13.2v-.5h8v.5h-8ZM175.6,17.4v-8.5c0-.4,0-.6-.1-.8,0-.2-.2-.3-.4-.4-.2,0-.5-.1-.9-.1s0,0,0-.1,0-.1,0-.1c.3,0,.7,0,1.1,0,.4,0,.8,0,1.3,0s1.1,0,1.5,0c.4,0,.8,0,1.2,0s0,0,0,.1,0,.1,0,.1c-.4,0-.8,0-1,.1-.2,0-.4.2-.4.4,0,.2-.1.5-.1.8v8.5c0,.4,0,.6.1.8,0,.2.2.3.4.4.2,0,.5,0,1,0s0,0,0,.1,0,.1,0,.1c-.4,0-.7,0-1.2,0-.4,0-.9,0-1.5,0s-.9,0-1.3,0c-.4,0-.8,0-1.1,0s0,0,0-.1,0-.1,0-.1c.4,0,.7,0,.9,0,.2,0,.3-.2.4-.4,0-.2.1-.5.1-.8ZM163.7,25c-.2,0-.4-.4-.7-1.1-.3-.7-.5-1.6-.5-2.7-.9-.1-1.7-.5-2.3-1.1-.6-.6-.9-1.5-.9-2.5s.3-2.4.9-3.6c.6-1.3,1.3-2.5,2.3-3.7-1.1-.3-2-.7-2.6-1.4-.6-.7-.8-1.5-.8-2.4s.3-1.5.8-2.2c.6-.8,1.3-1.5,2.3-2.1,1-.6,2.1-1.2,3.3-1.6,1.2-.4,2.5-.6,3.9-.6s.6,0,.8,0c.2,0,.4,0,.4.2s0,.1-.2.1-.3,0-.4,0c-.2,0-.4,0-.6,0-1,0-2,.2-3.1.5-1.1.4-2.2.9-3.1,1.5-1,.6-1.8,1.3-2.4,2.2-.6.8-.9,1.7-.9,2.5s.3,1.2.8,1.7c.5.5,1.3.9,2.2,1.1,1-1.2,2.2-2.4,3.5-3.4,1.3-1.1,2.7-2,4.1-2.8,1.4-.8,2.9-1.5,4.3-2,1.4-.5,2.8-.7,4-.7s.8,0,1.1.2c.3.2.4.4.4.8,0,.7-.3,1.4-.9,2.1-.6.7-1.5,1.5-2.6,2.2-1.1.7-2.3,1.4-3.6,2-1.3.6-2.7,1.1-4.1,1.5-1.4.4-2.7.6-4,.7-1.3,1.4-2.4,2.8-3.3,4.2-.9,1.4-1.3,2.6-1.3,3.6s.2,1.4.6,1.8c.4.4.9.7,1.6.9,0-1.3.2-2.6.7-3.8.5-1.2,1.2-2.3,2-3.3.8-1,1.8-1.7,2.8-2.3,1-.6,2.1-.8,3.2-.8s1.5.2,1.9.6c.4.4.7.9.7,1.5s-.3,1.7-.8,2.7c-.5,1-1.3,1.9-2.3,2.8-1,.9-2.1,1.6-3.4,2.2-1.3.6-2.7.9-4.2.9s-.2,0-.3,0c0,.5,0,1.1.2,1.8.1.7.4,1.3.7,1.7,0,0,0,0,0,.1h0c0,.1,0,.1-.1.1ZM165.3,10c1.1-.1,2.3-.4,3.6-.8,1.3-.4,2.6-.9,3.9-1.5,1.3-.6,2.5-1.3,3.5-1.9,1.1-.7,1.9-1.3,2.6-2,.6-.6,1-1.2,1-1.7s-.1-.5-.3-.6c-.2-.1-.5-.2-.8-.2-.7,0-1.6.2-2.7.7-1.1.5-2.2,1.1-3.4,2-1.2.8-2.5,1.7-3.7,2.8-1.2,1-2.4,2.1-3.5,3.2ZM163.3,20.9c.8,0,1.6-.2,2.5-.6.9-.4,1.7-1,2.5-1.6.8-.7,1.5-1.4,2.1-2.2.6-.8,1.1-1.6,1.5-2.3.4-.8.6-1.4.6-1.9s-.5-1.1-1.4-1.1-1.7.3-2.7.8c-.9.5-1.8,1.2-2.7,2.1-.8.9-1.5,1.9-2,3.1-.5,1.2-.8,2.5-.8,3.8h0c0,0,.1,0,.2,0h.2ZM148.3,62c-2.1,0-3.7-.4-4.7-1.2-1-.8-1.5-1.8-1.5-2.9s.3-1.5.9-1.9c.6-.4,1.2-.6,1.8-.6s.7.1,1,.3c.3.2.5.6.5,1s-.2.7-.5,1c-.3.3-.7.4-1.1.4s-.5,0-.8,0c-.2,0-.5-.1-.6-.3v.2c0,.9.4,1.6,1.2,2.2.8.6,2,.8,3.4.8s2.5-.2,3.7-.7c1.2-.5,2.5-1.3,3.9-2.6,1.4-1.3,3.1-3.2,5.1-5.6,2-2.5,4.4-5.7,7.3-9.7,3.1-4.5,6.3-8.1,9.5-11,3.2-2.9,6.4-5.4,9.7-7.6.2-.1.4-.2.6-.3.2-.1.4-.2.6-.3-1.2-.8-2.7-1.4-4.5-1.8-1.8-.4-3.8-.6-6-.6-3.4,0-6.7.6-9.7,1.7-3.1,1.1-5.8,2.6-8.1,4.3-2.3,1.8-4.2,3.7-5.5,5.7-1.3,2-1.9,4-1.9,5.9,0,1.1.3,1.9.8,2.6.5.6,1.1,1.1,1.8,1.4.7.3,1.4.4,2,.4,1.4,0,2.8-.4,4.3-1.3,1.4-.9,2.8-2,4.1-3.4,1.3-1.4,2.5-2.9,3.5-4.4,1-1.6,1.9-3.1,2.5-4.4.6-1.4,1-2.5,1.1-3.3,0-.7.2-1,.4-1s.3.3.3,1c0,1.8-.3,3.7-1,5.7-.7,2-1.8,4-3.2,5.8-1.4,1.8-3.1,3.3-5.2,4.5-2,1.2-4.3,1.7-6.9,1.7s-2.5-.4-3.7-1.3c-1.2-.9-1.8-2.1-1.8-3.7,0-2,.4-3.9,1.4-5.7,1-1.9,2.4-3.6,4.2-5.1,1.8-1.6,3.9-2.9,6.2-4.1,2.3-1.2,4.7-2.1,7.3-2.7,2.5-.7,5-1,7.5-1,4.5,0,8.2.9,11,2.8,1.5-.8,2.8-1.3,3.9-1.7,1.1-.4,1.9-.5,2.5-.5s.6,0,.6.3c0,.2-.3.4-.8.5-1.5.3-3.2,1.1-5.1,2.2,2.3,1.9,3.5,4.3,3.6,7.2,0,1.7-.4,3.3-1.4,5-1,1.6-2.4,3.1-4.2,4.5-1.8,1.3-4,2.4-6.5,3.1.6.6.9,1.4.9,2.3,0,.9,0,1.8-.3,2.7-.3.9-.8,2-1.7,3.2-.9,1.2-2.2,2.7-4,4.5-.7.6-1.1,1.1-1.4,1.6-.2.5-.3.9-.3,1.3,0,.6.2,1.1.6,1.6.4.4,1.2.6,2.4.6s3.2-.6,4.9-1.8c1.7-1.2,3.3-2.8,4.8-4.8,1.5-2.1,2.7-4.4,3.5-7,.2-.6.3-.9.4-.9.4,0,.5.3.5.9,0,1.7-.4,3.5-1.4,5.2-.9,1.7-2.2,3.2-3.7,4.6-1.5,1.4-3.1,2.5-4.7,3.4-1.7.8-3.2,1.3-4.6,1.3s-2.8-.3-3.7-1c-.9-.7-1.3-1.6-1.4-2.7,0-1.5.2-2.8.7-4,.5-1.2,1.2-2.3,2-3.2.8-1,1.6-1.9,2.4-2.7,1-.9,1.7-1.6,2-2.2.3-.6.4-1.1.4-1.7,0-.3,0-.5-.2-.8-.5.1-1,.2-1.4.3-.5,0-.9,0-1.3,0-.8,0-1.5-.1-1.9-.3-.4-.2-.7-.5-.7-.8,0-.2.2-.5.5-.7.4-.2,1-.4,1.7-.4s1.3,0,1.9.2c.6,0,1.2.3,1.7.6,1.4-.6,2.7-1.4,3.9-2.5,1.3-1.1,2.4-2.3,3.4-3.7,1-1.4,1.8-2.8,2.3-4.2.6-1.4.8-2.7.8-4,0-1.6-.7-3-1.9-4.1-2.3,1.6-4.8,3.8-7.4,6.6-2.6,2.8-5.1,6-7.6,9.7-3.8,5.4-7.3,9.7-10.4,12.8-3.1,3.1-6,5.4-8.5,6.7-2.6,1.3-4.9,2-7,2ZM177.4,43.3c.7,0,1.4-.1,2.2-.3-.5-.3-1.3-.5-2.4-.5s-1.2,0-1.2.3.1.2.4.3c.2.1.6.2,1,.2ZM105.9,39.1c-1.7,0-3.1-.4-4.1-1.2-1-.8-1.5-1.9-1.5-3.4s.7-3.7,2.2-5.5c1.5-1.9,3.6-3.6,6.2-5.1,2.7-1.5,5.8-2.7,9.5-3.6,2-.4,4-.7,6-.9,2-.1,4.1-.2,6.1-.2s4.9.2,7.3.6c2.5.4,4.9.6,7.2.6s5.8-.6,7.8-1.7c2-1.1,3.5-2.5,4.5-4.2.2-.3.3-.4.4-.5.1,0,.2,0,.3,0,.2,0,.3,0,.3.2s0,.2,0,.3c0,0-.1.2-.3.4-1.7,2.6-3.9,4.7-6.7,6.2-2.8,1.5-6.3,2.3-10.5,2.3s-6.2-.3-9.3-.8c-3.1-.5-6.2-.8-9.3-.8s-5.1.4-7.5,1.1c-2.5.7-4.7,1.7-6.7,2.9s-3.6,2.6-4.8,4c-1.2,1.5-1.8,2.9-1.8,4.4s.3,1.9.8,2.6c.6.7,1.5,1,2.7,1s3.2-.4,4.8-1.2c1.7-.8,3.2-1.8,4.7-3,1.5-1.2,2.7-2.5,3.6-3.9,1-1.4,1.5-2.6,1.6-3.7.1-.5.2-.7.3-.7.2,0,.3.2.3.7,0,1.7-.4,3.3-1.3,4.8-.8,1.5-2,2.9-3.4,4.2-1.4,1.2-3,2.2-4.6,3-1.7.7-3.3,1.1-5,1.1ZM90.9,66c-1.3,0-2.5-.2-3.7-.7s-2.2-1-2.9-1.7c-.8-.7-1.1-1.5-1.1-2.4s.3-1.7,1-2.1c.7-.4,1.4-.7,2.1-.7s.8.1,1.1.4c.4.2.6.6.6,1.2s-.2.8-.6,1.2c-.4.3-.8.5-1.3.5s-.6,0-.8,0c-.3,0-.5-.1-.7-.3v.2c0,1.1.6,2,1.9,2.6,1.3.7,2.9,1,4.8,1s3.1-.3,4.7-.8c1.6-.5,3.4-1.5,5.2-2.8,1.9-1.4,3.9-3.4,6-6,2.2-2.6,4.5-6,7.1-10.3,0,0,0-.1.2-.3-5.4,1.2-9.6,2.7-12.6,4.4-3,1.7-5,3.4-6,5.1-.2.4-.5.7-.6.7s-.2,0-.2-.3,0-.4.2-.6c.6-1.3,1.8-2.7,3.6-4,1.9-1.4,4.2-2.7,6.9-3.8,2.8-1.2,5.9-2.1,9.3-2.8,0,0,.1,0,.2,0,2.7-4.2,5.6-7.6,8.6-10.2,3-2.6,5.8-4.6,8.4-5.8,2.6-1.3,4.7-1.9,6.2-1.9s.8,0,.8.3,0,.2-.3.2c-.2,0-.6.2-1.1.3-2.6.7-5.5,2.5-8.5,5.3-3.1,2.8-6,6.3-8.8,10.5,1.4-.4,2.7-.7,4-1.1,1.3-.4,2.3-.7,3.1-1,.2-.1.4-.3.6-.5.2-.2.4-.5.5-.8.3,0,.8,0,1.5,0,.7,0,1.4.1,2.1.2.7,0,1.2.1,1.5.2-1,.5-2.1,1.2-3.3,2.1-1.1,1-2.2,2.1-3.2,3.4-1,1.3-1.8,2.6-2.3,4-.2.4-.4.5-.6.5-.3,0-.4-.2-.4-.5s0-.5.3-1c.5-1.3,1-2.4,1.4-3.4.4-.9.9-1.8,1.5-2.7-.9.3-2,.6-3.5.9-1.4.3-2.8.6-4.3.9v.2c-3.6,5.6-6.9,10-10,13.2-3,3.2-6.1,5.4-9.1,6.8-3,1.3-6.2,1.9-9.6,1.9ZM242.7,31.3c0,1,.2,1.8.7,2.6.5.7,1.1,1.4,1.8,2,.8.6,1.6,1.2,2.4,1.8.9.6,1.8,1.3,2.6,2,.8.7,1.5,1.5,2.1,2.4.6.9.8,1.9.8,3.2s-.3,2.6-1,3.6c-.7,1-1.6,1.8-2.8,2.4-1.2.6-2.5.8-4,.8s-1.5,0-2.3-.2c-.8-.2-1.5-.3-2.1-.6-.6-.2-1.1-.5-1.4-.7,0,0-.2-.2-.3-.2,0-.1-.1-.3-.1-.5v-6.1c-.1-.1,0-.2,0-.2.1,0,.2,0,.3.1.4.8.8,1.6,1.2,2.5.4.9.9,1.7,1.4,2.4.6.7,1.2,1.4,1.8,1.9.7.5,1.4.7,2.3.7s1.1-.1,1.6-.3c.5-.2.9-.6,1.2-1.1.3-.5.5-1.3.5-2.2s-.3-2.2-.8-3.1c-.5-.9-1.2-1.6-1.9-2.3-.8-.7-1.6-1.3-2.5-1.9-.8-.6-1.6-1.2-2.4-1.8-.8-.6-1.4-1.4-1.9-2.2-.5-.8-.7-1.8-.7-2.9s.4-2.6,1.1-3.5c.8-.9,1.7-1.6,2.9-2,1.2-.4,2.4-.7,3.6-.7s1.7,0,2.6.3c.9.2,1.5.3,2.1.6.2.1.4.2.4.3,0,.1.1.3.1.4v5.7c0,0,0,.1-.2.2,0,0-.2,0-.2,0-.1-.3-.3-.8-.6-1.5-.3-.7-.6-1.5-1-2.2-.4-.8-1-1.4-1.7-2-.7-.6-1.5-.8-2.4-.8s-1.2.1-1.7.4c-.5.3-.9.6-1.2,1.2-.3.5-.4,1.1-.4,1.9ZM216.8,39.6l.6-1.1h7.9l.3,1.1h-8.7ZM235.9,50.5c.1,0,.2,0,.2.2s0,.2-.2.2c-.8,0-1.6,0-2.4,0-.8,0-1.6,0-2.4,0s-1.6,0-2.3,0c-.6,0-1.4,0-2.1,0s-.2,0-.2-.2,0-.2.2-.2c1,0,1.6-.2,1.8-.6.2-.4,0-1.3-.7-2.5l-7.8-15.2,1.9-3.3-7.6,16.7c-.7,1.5-.7,2.7,0,3.6.7.9,1.7,1.3,3.1,1.3s.2,0,.2.2,0,.2-.2.2c-.8,0-1.5,0-2.1,0-.6,0-1.4,0-2.4,0s-1.8,0-2.4,0c-.6,0-1.3,0-2.2,0s-.2,0-.2-.2,0-.2.2-.2c.7,0,1.3-.1,1.8-.4.5-.3,1-.8,1.5-1.6.5-.8,1.1-1.9,1.7-3.3l8.3-18.1c0,0,.1-.1.3-.1.2,0,.3,0,.3.1l9.6,18.7c.6,1.2,1.1,2.1,1.6,2.8.5.7.9,1.2,1.3,1.5.4.3.8.4,1.2.4ZM199.2,40.3l4.7-8c.8-1.4,1.2-2.6,1-3.5-.2-.9-.9-1.3-2.1-1.3s-.1,0-.1-.2,0-.2.1-.2c.8,0,1.6,0,2.3,0,.7,0,1.7,0,2.9,0s1.2,0,1.5,0c.4,0,.9,0,1.5,0s0,0,0,.2,0,.2,0,.2c-.5,0-1.1.2-1.8.7-.7.4-1.4,1-2.2,1.8-.7.8-1.4,1.7-2,2.7l-5,8.3-.8-.7ZM197,40.5l-5.8-9.1c-1-1.6-1.8-2.6-2.5-3.1-.6-.5-1.1-.8-1.5-.8s-.1,0-.1-.2,0-.2.1-.2c.4,0,.8,0,1.2,0,.4,0,.8,0,1.2,0h2.3c.8,0,1.6,0,2.3,0,.7,0,1.3,0,1.8,0s0,0,0,.2,0,.2,0,.2c-.7,0-1.2.3-1.3.8-.1.5,0,1.1.5,1.8l5.5,8.7-3.7,1.7ZM196.8,39.1l4.3-.3v9.1c0,.7,0,1.3.2,1.7.1.4.4.6.8.8.4.1,1,.2,1.8.2s.1,0,.1.2,0,.2-.1.2c-.7,0-1.4,0-2.2,0-.8,0-1.7,0-2.6,0s-1.8,0-2.7,0-1.6,0-2.3,0,0,0,0-.2,0-.2,0-.2c.8,0,1.4,0,1.8-.2.4-.1.7-.4.8-.8.2-.4.2-.9.2-1.7v-8.8ZM149,52c-.8,0-1.9,0-3.2-.1-1.3,0-2.4-.1-3.5-.1s-1.9,0-2.7,0c-.9,0-1.7,0-2.3,0s0,0,0-.2,0-.2,0-.2c.8,0,1.4,0,1.8-.2.4-.1.7-.4.8-.8.2-.4.2-1,.2-1.7v-18.3c0-.8,0-1.3-.2-1.7-.1-.4-.4-.7-.8-.8-.4-.2-1-.2-1.8-.2s-.1,0-.1-.2,0-.2.1-.2c.7,0,1.5,0,2.3,0,.8,0,1.8,0,2.7,0s2,0,3.1,0c1.1,0,2.1-.1,2.9-.1,2.8,0,5.2.5,7.2,1.6,2,1.1,3.6,2.5,4.8,4.3,1.1,1.8,1.7,3.9,1.7,6.1s-.3,3.8-1,5.4c-.7,1.6-1.6,2.9-2.9,4.1-1.2,1.1-2.6,2-4.2,2.6-1.6.6-3.2.9-5,.9ZM148.6,51.1c1.7,0,3.2-.4,4.5-1.3,1.3-.9,2.3-2.1,3.1-3.8.7-1.7,1.1-3.7,1.1-6.1s-.3-4.3-1-6.1c-.7-1.8-1.7-3.3-2.9-4.3-1.2-1.1-2.7-1.6-4.5-1.6s-2.6.1-3.3.4c-.7.3-1,1-1,2.1v17.8c0,1,.3,1.7.8,2.2.5.5,1.6.7,3.3.7ZM130.7,51.6l12.4.4-12.4.4,5.3,6.3-6-5.5-.4,12.9-.4-12.9-6,5.5,5.3-6.3-12.4-.4,12.4-.4-5.3-6.3,6,5.5.4-12.9.4,12.9,6-5.5-5.3,6.3Z" fill="currentColor"/>
<path d="M33.3,53.8c-1.9-4.3-4.4-8.3-7.4-11.8-1.7-2-3.6-3.9-5.7-5.6C14.6,31.7,7.9,28.3.6,26.6c-.4,2-.6,4-.6,6.1s0,1.2,0,1.7c4.4,1.2,8.5,3,12.2,5.5,2.4,1.7,4.7,3.6,6.7,5.8,5,5.4,8.6,12.3,9.9,19.9.4,0,.7,0,1.1.1,1.1.1,2.3.2,3.4.2s2.3,0,3.4-.2c-.6-4.2-1.8-8.3-3.4-12Z" fill="url(#paint0_linear_89_12)"/>
<path d="M33.3,53.8c1.9-4.3,4.4-8.3,7.4-11.8,1.7-2,3.6-3.9,5.7-5.6,5.6-4.7,12.3-8.1,19.7-9.8.4,2,.6,4,.6,6.1s0,1.2,0,1.7c-4.4,1.2-8.5,3-12.2,5.5-2.4,1.7-4.7,3.6-6.7,5.8-5,5.4-8.6,12.3-9.9,19.9-.4,0-.7,0-1.1.1-1.1.1-2.3.2-3.4.2s-2.3,0-3.4-.2c.6-4.2,1.8-8.3,3.4-12Z" fill="url(#paint0_linear_89_11)"/>
<path d="M60.2,13.2c-4.8,4.5-10.8,7.9-17.5,9.5-3,.7-6.1,1.1-9.3,1.1,0,0,0,0,0,0s0,0,0,0c-3.2,0-6.3-.4-9.3-1.1-6.7-1.6-12.7-5-17.5-9.5-1.6,2.1-2.9,4.5-3.9,6.9,6.8,5.9,15.3,9.8,24.6,11.1.7,0,1.4.2,2.1.2,1.3.1,2.7.2,4,.2s2.7,0,4.1-.2c.7,0,1.4-.1,2.1-.2,9.3-1.2,17.8-5.2,24.6-11.1-1-2.5-2.3-4.8-3.9-6.9Z" fill="url(#paint0_linear_89_12)"/>
<path d="M54.4,40c-2.8-.9-5.5-2.1-8-3.6-2.5-1.5-4.8-3.2-6.9-5.2-.4-.4-.8-.7-1.1-1.1-1.9-1.9-3.5-4-5-6.2,0,0,0,0,0-.1-3.9-6.1-6.1-13.3-6.1-21.1s0-1.7,0-2.6c-2.8.5-5.4,1.3-7.9,2.5,0,0,0,0,0,0,0,7.2,1.6,14,4.5,20.1,1.2,2.6,2.7,5.1,4.4,7.4.3.5.7.9,1,1.3,1.3,1.6,2.6,3.2,4,4.6,2.2,2.2,4.7,4.2,7.4,6,2.2,1.5,4.6,2.7,7,3.8,4.5,1.9,9.3,3.2,14.4,3.7,1.4-2.4,2.5-4.9,3.2-7.6-3.8-.1-7.5-.8-10.9-1.9Z" fill="url(#paint0_linear_89_11)"/>
<path d="M12.2,40c2.8-.9,5.5-2.1,8-3.6,2.5-1.5,4.8-3.2,6.9-5.2.4-.4.8-.7,1.1-1.1,1.9-1.9,3.5-4,5-6.2,0,0,0,0,0-.1,3.9-6.1,6.1-13.3,6.1-21.1s0-1.7,0-2.6c2.8.5,5.4,1.3,7.9,2.5,0,0,0,0,0,0,0,7.2-1.6,14-4.5,20.1-1.2,2.6-2.7,5.1-4.4,7.4-.3.5-.7.9-1,1.3-1.3,1.6-2.6,3.2-4,4.6-2.2,2.2-4.7,4.2-7.4,6-2.2,1.5-4.6,2.7-7,3.8-4.5,1.9-9.3,3.2-14.4,3.7-1.4-2.4-2.5-4.9-3.2-7.6,3.8-.1,7.5-.8,10.9-1.9Z" fill="url(#paint0_linear_89_12)"/>
<path d="M49.1,32.2l-8.3.9h0c-5.7,1-5.7,1.6-6.4,6.9,0,.3-.1.7-.2,1.1h0s-.9,7.5-.9,7.5l-.9-7.5h0c0-.4-.1-.7-.2-1.1-.8-5.3-.7-5.9-6.4-6.9h0s-8.3-.9-8.3-.9l8.3-.9h0c5.7-1,5.7-1.6,6.4-6.9,0-.3.1-.7.2-1.1h0s.9-7.5.9-7.5l.9,7.5h0c0,.4.1.7.2,1.1.8,5.3.7,5.9,6.4,6.9h0s8.3.9,8.3.9h0Z" fill="#fff"/>
<defs>
<linearGradient id="paint0_linear_89_11" x1="00" y1="30" x2="60" y2="30" gradientUnits="userSpaceOnUse">
<stop stop-color="#238067"/>
<stop offset="1" stop-color="#134C45"/>
</linearGradient>
<linearGradient id="paint0_linear_89_12" x1="30" y1="0" x2="60" y2="0" gradientUnits="userSpaceOnUse">
<stop stop-color="#238067"/>
<stop offset="1" stop-color="#134C45"/>
</linearGradient>
</defs></symbol><use xlink:href="#logo-symbol-wordmark"/>
</svg>
