<?xml version="1.0" encoding="utf-8"?>
<svg width="261" height="66" viewBox="0 0 261 66" fill="none" xmlns="http://www.w3.org/2000/svg">
  <symbol id="logo-symbol-wordmark">
    <mask id="mask0_0_1" style="mask-type:luminance" maskUnits="userSpaceOnUse" x="3" y="0" width="67" height="66">
      <path d="M69.0594 32.9999C69.0594 51.2249 54.2712 65.9999 36.0297 65.9999C17.7883 65.9999 3 51.2249 3 32.9999C3 14.7749 17.7883 0 36.0297 0C54.2712 0 69.0594 14.7749 69.0594 32.9999Z" fill="white"/>
      <path fill-rule="evenodd" clip-rule="evenodd" d="M36.0297 58.2999C50.0147 58.2999 61.3525 46.9723 61.3525 32.9999C61.3525 19.0275 50.0147 7.69999 36.0297 7.69999C22.0447 7.69999 10.7069 19.0275 10.7069 32.9999C10.7069 46.9723 22.0447 58.2999 36.0297 58.2999ZM36.0297 65.9999C54.2712 65.9999 69.0594 51.2249 69.0594 32.9999C69.0594 14.7749 54.2712 0 36.0297 0C17.7883 0 3 14.7749 3 32.9999C3 51.2249 17.7883 65.9999 36.0297 65.9999Z" fill="white"/>
    </mask>
    <g mask="url(#mask0_0_1)" transform="matrix(1, 0, 0, 1, -2.277965, -0.323399)">
      <path fill-rule="evenodd" clip-rule="evenodd" d="M-43.7061 3.08674C-43.7061 -22.7225 -22.7661 -43.6436 3.0664 -43.6436C28.8989 -43.6436 49.8389 -22.7225 49.8389 3.08674C49.8389 28.8959 28.8989 49.817 3.0664 49.817C-22.7661 49.817 -43.7061 28.8959 -43.7061 3.08674ZM3.0664 -35.9436C-18.5097 -35.9436 -35.9991 -18.4699 -35.9991 3.08674C-35.9991 24.6434 -18.5097 42.117 3.0664 42.117C24.6425 42.117 42.1319 24.6434 42.1319 3.08674C42.1319 -18.4699 24.6425 -35.9436 3.0664 -35.9436Z" fill="#09584B"/>
      <path fill-rule="evenodd" clip-rule="evenodd" d="M22.2249 3.08674C22.2249 -22.7225 43.1648 -43.6436 68.9973 -43.6436C94.8298 -43.6436 115.77 -22.7225 115.77 3.08674C115.77 28.896 94.8298 49.817 68.9973 49.817C43.1648 49.817 22.2249 28.8959 22.2249 3.08674ZM68.9973 -35.9436C47.4212 -35.9436 29.9318 -18.4699 29.9318 3.08674C29.9318 24.6434 47.4212 42.117 68.9973 42.117C90.5734 42.117 108.063 24.6434 108.063 3.08674C108.063 -18.4699 90.5734 -35.9436 68.9973 -35.9436Z" fill="#09584B"/>
      <path fill-rule="evenodd" clip-rule="evenodd" d="M-53.6536 72.4754C-53.6536 46.6662 -32.7136 25.7451 -6.88111 25.7451C18.9514 25.7451 39.8913 46.6662 39.8913 72.4754C39.8913 98.2846 18.9514 119.206 -6.88111 119.206C-32.7136 119.206 -53.6536 98.2846 -53.6536 72.4754ZM-6.88111 33.4451C-28.4572 33.4451 -45.9466 50.9188 -45.9466 72.4754C-45.9466 94.032 -28.4572 111.506 -6.88111 111.506C14.695 111.506 32.1844 94.032 32.1844 72.4754C32.1844 50.9188 14.695 33.4451 -6.88111 33.4451Z" fill="#09584B"/>
      <path fill-rule="evenodd" clip-rule="evenodd" d="M32.1726 72.4754C32.1726 46.6662 53.1126 25.7451 78.9451 25.7451C104.778 25.7451 125.718 46.6662 125.718 72.4754C125.718 98.2846 104.778 119.206 78.9451 119.206C53.1126 119.206 32.1726 98.2846 32.1726 72.4754ZM78.9451 33.4451C57.369 33.4451 39.8795 50.9188 39.8795 72.4754C39.8795 94.032 57.369 111.506 78.9451 111.506C100.521 111.506 118.011 94.032 118.011 72.4754C118.011 50.9188 100.521 33.4451 78.9451 33.4451Z" fill="#09584B"/>
      <path fill-rule="evenodd" clip-rule="evenodd" d="M-10.7418 -14.8703C-10.7418 -40.6795 10.1981 -61.6006 36.0306 -61.6006C61.8631 -61.6006 82.8031 -40.6795 82.8031 -14.8703C82.8031 10.9389 61.8631 31.86 36.0306 31.86C10.1981 31.86 -10.7418 10.9389 -10.7418 -14.8703ZM36.0306 -53.9006C14.4546 -53.9006 -3.03489 -36.4269 -3.03489 -14.8703C-3.03489 6.6863 14.4546 24.16 36.0306 24.16C57.6067 24.16 75.0962 6.6863 75.0962 -14.8703C75.0962 -36.4269 57.6067 -53.9006 36.0306 -53.9006Z" fill="#09584B"/>
    </g>
    <path d="M 95.552 48.678 C 92.247 48.678 89.24 48.137 86.531 47.057 C 83.868 45.934 81.573 44.4 79.645 42.455 C 77.763 40.511 76.294 38.286 75.238 35.779 C 74.228 33.23 73.723 30.529 73.723 27.678 C 73.723 24.178 74.434 21.11 75.857 18.474 C 77.326 15.838 79.255 13.656 81.642 11.928 C 84.029 10.156 86.646 8.838 89.492 7.974 C 92.338 7.11 95.162 6.678 97.963 6.678 C 101.36 6.678 104.39 7.261 107.052 8.428 C 109.761 9.551 112.056 11.085 113.939 13.029 C 115.821 14.974 117.244 17.178 118.208 19.641 C 119.218 22.103 119.723 24.631 119.723 27.224 C 119.723 30.249 119.08 33.057 117.795 35.65 C 116.509 38.242 114.742 40.511 112.492 42.455 C 110.289 44.4 107.718 45.934 104.78 47.057 C 101.888 48.137 98.812 48.678 95.552 48.678 Z M 97.825 47.057 C 100.396 47.057 102.691 46.366 104.711 44.983 C 106.731 43.6 108.315 41.57 109.463 38.891 C 110.656 36.212 111.253 32.949 111.253 29.103 C 111.253 25.128 110.61 21.585 109.325 18.474 C 108.039 15.363 106.203 12.921 103.816 11.15 C 101.429 9.335 98.559 8.428 95.208 8.428 C 91.03 8.428 87.816 9.918 85.567 12.9 C 83.317 15.881 82.193 20.008 82.193 25.279 C 82.193 28.434 82.583 31.35 83.363 34.029 C 84.144 36.665 85.223 38.977 86.6 40.965 C 88.023 42.909 89.676 44.421 91.558 45.502 C 93.486 46.539 95.575 47.057 97.825 47.057 Z" fill="black"/>
    <path d="M 103.723 27.678 L 100.311 28.096 L 100.302 28.098 C 97.959 28.587 97.977 28.902 97.652 31.484 C 97.632 31.649 97.61 31.822 97.586 32.006 L 97.585 32.013 L 97.223 35.678 L 96.861 32.013 L 96.86 32.006 C 96.836 31.822 96.814 31.649 96.794 31.484 C 96.468 28.902 96.487 28.587 94.144 28.098 L 94.134 28.096 L 90.723 27.678 L 94.134 27.259 L 94.144 27.257 C 96.487 26.768 96.469 26.453 96.794 23.871 C 96.814 23.707 96.836 23.533 96.86 23.349 L 96.861 23.342 L 97.223 19.678 L 97.585 23.342 L 97.586 23.349 C 97.61 23.533 97.632 23.707 97.652 23.871 C 97.977 26.453 97.959 26.769 100.302 27.257 L 100.311 27.26 L 103.723 27.678 Z" fill="black"/>
    <path d="M 249.266 16.989 L 249.266 8.428 L 249.831 8.464 L 249.831 16.989 C 249.831 17.626 249.97 18.131 250.246 18.503 C 250.523 18.876 250.906 19.062 251.397 19.062 C 251.422 19.062 251.435 19.098 251.435 19.17 C 251.435 19.242 251.422 19.278 251.397 19.278 C 251.12 19.278 250.831 19.272 250.529 19.26 C 250.24 19.248 249.919 19.242 249.567 19.242 C 249.19 19.242 248.819 19.248 248.455 19.26 C 248.103 19.272 247.776 19.278 247.474 19.278 C 247.436 19.278 247.417 19.242 247.417 19.17 C 247.417 19.098 247.436 19.062 247.474 19.062 C 248.027 19.062 248.461 18.876 248.775 18.503 C 249.102 18.131 249.266 17.626 249.266 16.989 Z M 258.884 19.549 C 258.884 19.585 258.853 19.603 258.79 19.603 C 258.74 19.615 258.702 19.615 258.677 19.603 L 249.379 9.491 C 248.926 8.999 248.543 8.668 248.228 8.5 C 247.914 8.32 247.6 8.23 247.285 8.23 C 247.26 8.23 247.248 8.194 247.248 8.122 C 247.248 8.049 247.26 8.013 247.285 8.013 C 247.537 8.013 247.795 8.019 248.059 8.031 C 248.323 8.043 248.568 8.049 248.794 8.049 C 249.247 8.049 249.655 8.043 250.02 8.031 C 250.385 8.019 250.668 8.013 250.869 8.013 C 251.032 8.013 251.152 8.086 251.227 8.23 C 251.315 8.362 251.51 8.602 251.812 8.951 L 258.733 16.575 L 258.884 19.549 Z M 258.884 10.321 L 258.884 19.549 L 258.337 19.008 L 258.337 10.321 C 258.337 9.684 258.199 9.179 257.922 8.806 C 257.646 8.422 257.262 8.23 256.772 8.23 C 256.747 8.23 256.734 8.194 256.734 8.122 C 256.734 8.049 256.747 8.013 256.772 8.013 C 257.048 8.013 257.331 8.025 257.621 8.049 C 257.922 8.062 258.249 8.068 258.601 8.068 C 258.941 8.068 259.274 8.062 259.601 8.049 C 259.928 8.025 260.229 8.013 260.506 8.013 C 260.531 8.013 260.544 8.049 260.544 8.122 C 260.544 8.194 260.531 8.23 260.506 8.23 C 260.003 8.23 259.607 8.422 259.318 8.806 C 259.029 9.179 258.884 9.684 258.884 10.321 Z" fill="black"/>
    <path d="M 245.574 19.278 L 237.238 19.278 C 237.2 19.278 237.181 19.242 237.181 19.17 C 237.181 19.098 237.2 19.062 237.238 19.062 C 237.628 19.062 237.917 19.032 238.106 18.972 C 238.294 18.912 238.42 18.792 238.483 18.611 C 238.546 18.431 238.577 18.167 238.577 17.818 L 238.577 9.473 C 238.577 9.125 238.546 8.867 238.483 8.698 C 238.42 8.518 238.294 8.398 238.106 8.338 C 237.917 8.266 237.628 8.23 237.238 8.23 C 237.2 8.23 237.181 8.194 237.181 8.122 C 237.181 8.049 237.2 8.013 237.238 8.013 L 245.235 8.013 C 245.36 8.013 245.423 8.068 245.423 8.176 L 245.461 10.573 C 245.461 10.597 245.43 10.615 245.367 10.627 C 245.304 10.639 245.26 10.627 245.235 10.591 C 245.033 9.882 244.694 9.365 244.216 9.041 C 243.738 8.704 243.11 8.536 242.33 8.536 L 241.764 8.536 C 241.513 8.536 241.305 8.572 241.142 8.644 C 240.979 8.704 240.859 8.806 240.784 8.951 C 240.708 9.095 240.671 9.275 240.671 9.491 L 240.671 17.746 C 240.671 17.974 240.702 18.167 240.765 18.323 C 240.828 18.479 240.922 18.593 241.048 18.665 C 241.173 18.737 241.337 18.774 241.538 18.774 L 242.16 18.774 C 243.141 18.774 243.927 18.581 244.518 18.197 C 245.109 17.812 245.543 17.218 245.819 16.412 C 245.832 16.376 245.87 16.37 245.932 16.394 C 246.008 16.406 246.046 16.424 246.046 16.449 C 245.995 16.797 245.951 17.211 245.914 17.692 C 245.876 18.161 245.857 18.599 245.857 19.008 C 245.857 19.188 245.763 19.278 245.574 19.278 Z M 244.518 15.259 C 244.518 14.766 244.323 14.382 243.933 14.105 C 243.544 13.817 242.971 13.673 242.217 13.673 L 239.671 13.673 L 239.671 13.168 L 242.236 13.168 C 242.978 13.168 243.537 13.048 243.914 12.808 C 244.304 12.555 244.499 12.219 244.499 11.798 C 244.499 11.762 244.531 11.744 244.593 11.744 C 244.669 11.744 244.707 11.762 244.707 11.798 C 244.707 12.195 244.7 12.507 244.688 12.736 C 244.688 12.952 244.688 13.18 244.688 13.421 C 244.688 13.721 244.694 14.015 244.707 14.304 C 244.732 14.592 244.744 14.91 244.744 15.259 C 244.744 15.283 244.707 15.295 244.631 15.295 C 244.556 15.295 244.518 15.283 244.518 15.259 Z" fill="black"/>
    <path d="M 233.292 19.279 C 233.103 19.279 232.795 19.044 232.368 18.576 C 231.953 18.107 231.45 17.434 230.859 16.557 C 230.268 15.668 229.601 14.61 228.86 13.385 L 230.595 12.862 C 231.601 14.376 232.456 15.59 233.16 16.503 C 233.876 17.404 234.511 18.059 235.065 18.467 C 235.618 18.864 236.146 19.062 236.649 19.062 C 236.674 19.062 236.686 19.098 236.686 19.17 C 236.686 19.243 236.674 19.279 236.649 19.279 C 235.769 19.279 235.052 19.279 234.499 19.279 C 233.945 19.279 233.543 19.279 233.292 19.279 Z M 228.992 7.96 C 230.148 7.96 231.041 8.164 231.67 8.573 C 232.311 8.969 232.632 9.528 232.632 10.249 C 232.632 10.705 232.512 11.138 232.273 11.546 C 232.047 11.955 231.739 12.321 231.349 12.646 C 230.972 12.958 230.538 13.205 230.048 13.385 C 229.57 13.565 229.08 13.655 228.577 13.655 C 228.401 13.655 228.218 13.655 228.03 13.655 C 227.854 13.655 227.69 13.649 227.539 13.637 L 227.539 17.819 C 227.539 18.167 227.571 18.431 227.634 18.612 C 227.697 18.792 227.822 18.912 228.011 18.972 C 228.2 19.032 228.489 19.062 228.878 19.062 C 228.904 19.062 228.916 19.098 228.916 19.17 C 228.916 19.243 228.904 19.279 228.878 19.279 C 228.552 19.279 228.187 19.273 227.785 19.261 C 227.382 19.249 226.942 19.243 226.464 19.243 C 226.012 19.243 225.578 19.249 225.163 19.261 C 224.761 19.273 224.396 19.279 224.069 19.279 C 224.032 19.279 224.013 19.243 224.013 19.17 C 224.013 19.098 224.032 19.062 224.069 19.062 C 224.459 19.062 224.748 19.032 224.937 18.972 C 225.125 18.912 225.251 18.792 225.314 18.612 C 225.389 18.431 225.427 18.167 225.427 17.819 L 225.427 9.474 C 225.427 9.125 225.396 8.867 225.333 8.699 C 225.27 8.518 225.144 8.398 224.956 8.338 C 224.767 8.266 224.478 8.23 224.088 8.23 C 224.063 8.23 224.05 8.194 224.05 8.122 C 224.05 8.05 224.063 8.014 224.088 8.014 C 224.415 8.014 224.78 8.026 225.182 8.05 C 225.584 8.062 226.012 8.068 226.464 8.068 C 226.842 8.068 227.25 8.05 227.69 8.014 C 228.143 7.978 228.577 7.96 228.992 7.96 Z M 230.463 10.934 C 230.463 10.225 230.387 9.684 230.236 9.312 C 230.086 8.939 229.878 8.687 229.614 8.555 C 229.35 8.41 229.048 8.338 228.709 8.338 C 228.42 8.338 228.187 8.38 228.011 8.464 C 227.847 8.536 227.728 8.663 227.653 8.843 C 227.577 9.011 227.539 9.233 227.539 9.51 L 227.539 13.115 C 227.715 13.139 227.904 13.157 228.105 13.169 C 228.306 13.181 228.482 13.187 228.633 13.187 C 229.3 13.187 229.771 13.03 230.048 12.718 C 230.324 12.406 230.463 11.811 230.463 10.934 Z" fill="black"/>
    <path d="M 216.147 19.35 C 215.744 19.35 215.241 19.332 214.638 19.296 C 214.034 19.26 213.481 19.242 212.978 19.242 C 212.525 19.242 212.092 19.248 211.677 19.26 C 211.262 19.272 210.891 19.278 210.564 19.278 C 210.539 19.278 210.526 19.242 210.526 19.17 C 210.526 19.098 210.539 19.062 210.564 19.062 C 210.954 19.062 211.243 19.032 211.432 18.972 C 211.633 18.912 211.765 18.791 211.828 18.611 C 211.903 18.431 211.941 18.167 211.941 17.818 L 211.941 9.473 C 211.941 9.125 211.909 8.866 211.847 8.698 C 211.784 8.518 211.652 8.398 211.45 8.338 C 211.262 8.266 210.979 8.23 210.602 8.23 C 210.564 8.23 210.545 8.194 210.545 8.122 C 210.545 8.049 210.564 8.013 210.602 8.013 C 210.929 8.013 211.293 8.025 211.696 8.049 C 212.098 8.061 212.532 8.067 212.997 8.067 C 213.45 8.067 213.946 8.055 214.487 8.031 C 215.028 7.995 215.493 7.977 215.883 7.977 C 217.19 7.977 218.328 8.218 219.296 8.698 C 220.264 9.179 221.019 9.834 221.559 10.663 C 222.1 11.492 222.37 12.423 222.37 13.457 C 222.37 14.358 222.207 15.175 221.88 15.908 C 221.553 16.629 221.1 17.247 220.522 17.764 C 219.944 18.269 219.277 18.659 218.523 18.936 C 217.781 19.212 216.989 19.35 216.147 19.35 Z M 215.958 18.936 C 216.75 18.936 217.454 18.743 218.07 18.359 C 218.686 17.962 219.17 17.386 219.522 16.629 C 219.875 15.872 220.051 14.946 220.051 13.853 C 220.051 12.832 219.887 11.906 219.56 11.077 C 219.233 10.248 218.774 9.593 218.183 9.113 C 217.592 8.62 216.888 8.374 216.071 8.374 C 215.342 8.374 214.82 8.44 214.506 8.572 C 214.191 8.704 214.034 9.017 214.034 9.509 L 214.034 17.62 C 214.034 18.065 214.154 18.395 214.393 18.611 C 214.644 18.828 215.166 18.936 215.958 18.936 Z" fill="black"/>
    <path d="M 203.738 9.491 L 203.738 17.746 C 203.738 18.035 203.763 18.257 203.814 18.413 C 203.864 18.557 203.965 18.653 204.116 18.701 C 204.279 18.75 204.512 18.774 204.813 18.774 L 205.455 18.774 C 206.435 18.774 207.284 18.521 208.001 18.017 C 208.717 17.512 209.195 16.839 209.434 15.998 C 209.447 15.962 209.484 15.95 209.547 15.962 C 209.61 15.974 209.641 15.998 209.641 16.034 C 209.604 16.43 209.566 16.911 209.528 17.476 C 209.491 18.029 209.472 18.539 209.472 19.008 C 209.472 19.188 209.377 19.278 209.189 19.278 L 200.287 19.278 C 200.262 19.278 200.249 19.242 200.249 19.17 C 200.249 19.098 200.262 19.062 200.287 19.062 C 200.677 19.062 200.966 19.032 201.155 18.972 C 201.343 18.912 201.469 18.792 201.532 18.611 C 201.607 18.431 201.645 18.167 201.645 17.818 L 201.645 9.473 C 201.645 9.125 201.607 8.867 201.532 8.698 C 201.469 8.518 201.343 8.398 201.155 8.338 C 200.966 8.266 200.677 8.23 200.287 8.23 C 200.262 8.23 200.249 8.194 200.249 8.122 C 200.249 8.049 200.262 8.013 200.287 8.013 C 200.589 8.013 200.947 8.025 201.362 8.049 C 201.789 8.062 202.23 8.068 202.682 8.068 C 203.16 8.068 203.6 8.062 204.002 8.049 C 204.405 8.025 204.763 8.013 205.077 8.013 C 205.115 8.013 205.134 8.049 205.134 8.122 C 205.134 8.194 205.115 8.23 205.077 8.23 C 204.7 8.23 204.411 8.266 204.21 8.338 C 204.021 8.398 203.895 8.518 203.833 8.698 C 203.77 8.879 203.738 9.143 203.738 9.491 Z" fill="black"/>
    <path d="M 197.557 17.818 C 197.557 18.167 197.588 18.431 197.651 18.611 C 197.714 18.792 197.84 18.912 198.028 18.972 C 198.217 19.032 198.506 19.062 198.896 19.062 C 198.933 19.062 198.952 19.098 198.952 19.17 C 198.952 19.242 198.933 19.278 198.896 19.278 C 198.569 19.278 198.204 19.272 197.802 19.26 C 197.4 19.248 196.959 19.242 196.482 19.242 C 196.029 19.242 195.595 19.248 195.18 19.26 C 194.765 19.272 194.395 19.278 194.068 19.278 C 194.042 19.278 194.03 19.242 194.03 19.17 C 194.03 19.098 194.042 19.062 194.068 19.062 C 194.457 19.062 194.747 19.032 194.935 18.972 C 195.136 18.912 195.268 18.792 195.331 18.611 C 195.407 18.431 195.444 18.167 195.444 17.818 L 195.444 9.473 C 195.444 9.125 195.407 8.867 195.331 8.698 C 195.268 8.518 195.136 8.398 194.935 8.338 C 194.747 8.266 194.457 8.23 194.068 8.23 C 194.042 8.23 194.03 8.194 194.03 8.122 C 194.03 8.049 194.042 8.013 194.068 8.013 C 194.395 8.013 194.765 8.025 195.18 8.049 C 195.595 8.062 196.029 8.068 196.482 8.068 C 196.959 8.068 197.4 8.062 197.802 8.049 C 198.217 8.025 198.581 8.013 198.896 8.013 C 198.933 8.013 198.952 8.049 198.952 8.122 C 198.952 8.194 198.933 8.23 198.896 8.23 C 198.519 8.23 198.229 8.266 198.028 8.338 C 197.84 8.41 197.714 8.536 197.651 8.716 C 197.588 8.897 197.557 9.161 197.557 9.509 L 197.557 17.818 Z" fill="black"/>
    <path d="M 189.113 9.509 C 189.113 9.161 189.076 8.897 189 8.716 C 188.937 8.536 188.793 8.41 188.566 8.338 C 188.34 8.266 188.001 8.23 187.548 8.23 C 187.51 8.23 187.491 8.194 187.491 8.122 C 187.491 8.049 187.51 8.013 187.548 8.013 C 187.875 8.013 188.246 8.025 188.661 8.049 C 189.088 8.062 189.591 8.068 190.169 8.068 C 190.622 8.068 191.068 8.062 191.508 8.049 C 191.961 8.025 192.351 8.013 192.678 8.013 C 192.716 8.013 192.734 8.049 192.734 8.122 C 192.734 8.194 192.716 8.23 192.678 8.23 C 192.263 8.23 191.949 8.266 191.735 8.338 C 191.521 8.398 191.376 8.518 191.301 8.698 C 191.238 8.867 191.207 9.125 191.207 9.473 L 191.207 17.818 C 191.207 18.167 191.238 18.431 191.301 18.611 C 191.376 18.792 191.521 18.912 191.735 18.972 C 191.949 19.032 192.263 19.062 192.678 19.062 C 192.716 19.062 192.734 19.098 192.734 19.17 C 192.734 19.242 192.716 19.278 192.678 19.278 C 192.351 19.278 191.961 19.272 191.508 19.26 C 191.068 19.248 190.622 19.242 190.169 19.242 C 189.591 19.242 189.088 19.248 188.661 19.26 C 188.246 19.272 187.875 19.278 187.548 19.278 C 187.51 19.278 187.491 19.242 187.491 19.17 C 187.491 19.098 187.51 19.062 187.548 19.062 C 188.001 19.062 188.34 19.032 188.566 18.972 C 188.793 18.912 188.937 18.792 189 18.611 C 189.076 18.431 189.113 18.167 189.113 17.818 L 189.113 9.509 Z M 181.909 13.673 L 181.909 13.168 L 190.075 13.168 L 190.075 13.673 L 181.909 13.673 Z M 180.928 17.818 L 180.928 9.473 C 180.928 9.125 180.89 8.867 180.815 8.698 C 180.752 8.518 180.614 8.398 180.4 8.338 C 180.199 8.266 179.891 8.23 179.476 8.23 C 179.438 8.23 179.419 8.194 179.419 8.122 C 179.419 8.049 179.438 8.013 179.476 8.013 C 179.803 8.013 180.174 8.025 180.589 8.049 C 181.004 8.062 181.437 8.068 181.89 8.068 C 182.468 8.068 182.971 8.062 183.399 8.049 C 183.839 8.025 184.235 8.013 184.587 8.013 C 184.612 8.013 184.625 8.049 184.625 8.122 C 184.625 8.194 184.612 8.23 184.587 8.23 C 184.147 8.23 183.814 8.266 183.587 8.338 C 183.361 8.41 183.21 8.536 183.135 8.716 C 183.059 8.897 183.022 9.161 183.022 9.509 L 183.022 17.818 C 183.022 18.167 183.059 18.431 183.135 18.611 C 183.21 18.792 183.361 18.912 183.587 18.972 C 183.814 19.032 184.147 19.062 184.587 19.062 C 184.612 19.062 184.625 19.098 184.625 19.17 C 184.625 19.242 184.612 19.278 184.587 19.278 C 184.222 19.278 183.826 19.272 183.399 19.26 C 182.971 19.248 182.468 19.242 181.89 19.242 C 181.437 19.242 180.997 19.248 180.57 19.26 C 180.142 19.272 179.765 19.278 179.438 19.278 C 179.413 19.278 179.4 19.242 179.4 19.17 C 179.4 19.098 179.413 19.062 179.438 19.062 C 179.866 19.062 180.18 19.032 180.381 18.972 C 180.595 18.912 180.74 18.792 180.815 18.611 C 180.89 18.431 180.928 18.167 180.928 17.818 Z" fill="black"/>
    <path d="M 168.555 24.678 C 168.368 24.678 168.12 24.331 167.809 23.636 C 167.498 22.942 167.317 22.073 167.265 21.027 C 166.323 20.907 165.536 20.56 164.904 19.986 C 164.272 19.403 163.956 18.593 163.956 17.557 C 163.956 16.428 164.256 15.262 164.857 14.059 C 165.458 12.846 166.261 11.662 167.265 10.505 C 166.074 10.265 165.183 9.816 164.593 9.159 C 164.013 8.492 163.723 7.734 163.723 6.882 C 163.723 6.188 164.013 5.48 164.593 4.758 C 165.173 4.037 165.965 3.366 166.97 2.746 C 167.985 2.126 169.135 1.626 170.419 1.247 C 171.714 0.867 173.071 0.678 174.49 0.678 C 174.832 0.678 175.127 0.701 175.376 0.747 C 175.624 0.784 175.748 0.839 175.748 0.913 C 175.748 0.988 175.681 1.025 175.546 1.025 C 175.433 1.025 175.277 1.015 175.08 0.997 C 174.894 0.978 174.671 0.969 174.412 0.969 C 173.376 0.969 172.279 1.145 171.118 1.496 C 169.958 1.848 168.866 2.329 167.84 2.94 C 166.825 3.542 165.997 4.231 165.354 5.008 C 164.712 5.786 164.391 6.6 164.391 7.451 C 164.391 8.044 164.66 8.599 165.199 9.117 C 165.748 9.626 166.53 9.982 167.545 10.186 C 168.602 9.02 169.808 7.919 171.165 6.882 C 172.522 5.846 173.951 4.934 175.453 4.148 C 176.955 3.352 178.452 2.727 179.943 2.274 C 181.435 1.82 182.844 1.594 184.169 1.594 C 184.615 1.594 184.982 1.672 185.272 1.83 C 185.573 1.978 185.723 2.241 185.723 2.621 C 185.723 3.25 185.392 3.921 184.729 4.634 C 184.066 5.346 183.175 6.045 182.056 6.73 C 180.938 7.414 179.684 8.044 178.296 8.617 C 176.908 9.191 175.479 9.663 174.008 10.033 C 172.538 10.394 171.134 10.602 169.798 10.658 C 168.41 12.018 167.26 13.355 166.349 14.669 C 165.448 15.984 164.997 17.122 164.997 18.084 C 164.997 18.815 165.199 19.394 165.603 19.819 C 166.017 20.236 166.571 20.509 167.265 20.638 C 167.265 19.37 167.524 18.154 168.042 16.988 C 168.57 15.812 169.275 14.767 170.155 13.85 C 171.036 12.925 172.02 12.199 173.107 11.671 C 174.205 11.134 175.329 10.866 176.479 10.866 C 177.349 10.866 178.012 11.047 178.467 11.407 C 178.933 11.759 179.167 12.226 179.167 12.809 C 179.167 13.605 178.882 14.48 178.312 15.433 C 177.742 16.377 176.945 17.279 175.919 18.14 C 174.904 18.991 173.718 19.694 172.361 20.25 C 171.015 20.796 169.56 21.069 167.996 21.069 C 167.871 21.069 167.778 21.064 167.716 21.055 C 167.737 21.554 167.809 22.142 167.933 22.818 C 168.068 23.502 168.301 24.039 168.633 24.428 C 168.674 24.474 168.695 24.511 168.695 24.539 C 168.695 24.567 168.695 24.59 168.695 24.608 C 168.695 24.654 168.648 24.678 168.555 24.678 Z M 170.186 10.283 C 171.326 10.181 172.574 9.927 173.931 9.52 C 175.288 9.112 176.634 8.617 177.97 8.034 C 179.317 7.451 180.544 6.831 181.652 6.174 C 182.771 5.517 183.667 4.883 184.34 4.273 C 185.013 3.653 185.35 3.116 185.35 2.662 C 185.35 2.394 185.236 2.204 185.008 2.093 C 184.791 1.982 184.501 1.927 184.138 1.927 C 183.372 1.927 182.429 2.158 181.311 2.621 C 180.192 3.074 178.99 3.699 177.706 4.495 C 176.422 5.281 175.132 6.174 173.837 7.174 C 172.543 8.164 171.326 9.2 170.186 10.283 Z M 168.167 20.708 C 169.005 20.708 169.87 20.504 170.761 20.097 C 171.652 19.69 172.512 19.162 173.34 18.514 C 174.169 17.857 174.915 17.154 175.578 16.405 C 176.24 15.646 176.763 14.905 177.147 14.184 C 177.54 13.462 177.737 12.842 177.737 12.324 C 177.737 11.602 177.261 11.241 176.308 11.241 C 175.427 11.241 174.49 11.486 173.496 11.977 C 172.501 12.458 171.564 13.129 170.683 13.989 C 169.813 14.85 169.099 15.854 168.539 17.001 C 167.99 18.14 167.716 19.366 167.716 20.68 L 167.716 20.694 C 167.788 20.703 167.861 20.708 167.933 20.708 C 168.016 20.708 168.094 20.708 168.167 20.708 Z" fill="black"/>
    <path d="M 153.088 60.678 C 150.906 60.678 149.295 60.288 148.254 59.509 C 147.233 58.729 146.723 57.784 146.723 56.674 C 146.723 55.817 147.033 55.203 147.654 54.833 C 148.274 54.443 148.895 54.248 149.515 54.248 C 149.855 54.248 150.186 54.356 150.506 54.57 C 150.846 54.784 151.016 55.125 151.016 55.593 C 151.016 55.963 150.846 56.304 150.506 56.616 C 150.186 56.908 149.805 57.054 149.365 57.054 C 149.105 57.054 148.845 57.034 148.584 56.995 C 148.344 56.956 148.124 56.869 147.924 56.732 L 147.924 56.908 C 147.924 57.765 148.344 58.476 149.185 59.041 C 150.045 59.587 151.216 59.859 152.697 59.859 C 154.018 59.859 155.279 59.635 156.48 59.187 C 157.681 58.739 158.992 57.892 160.413 56.645 C 161.854 55.378 163.575 53.547 165.577 51.151 C 167.578 48.755 170.04 45.598 172.962 41.683 C 176.164 37.319 179.377 33.744 182.599 30.958 C 185.821 28.172 189.124 25.688 192.506 23.506 C 192.706 23.389 192.897 23.282 193.077 23.184 C 193.277 23.067 193.477 22.96 193.677 22.863 C 192.456 22.064 190.925 21.47 189.084 21.08 C 187.262 20.691 185.221 20.496 182.959 20.496 C 179.477 20.496 176.174 21.041 173.052 22.132 C 169.93 23.223 167.178 24.636 164.796 26.37 C 162.414 28.104 160.553 29.974 159.212 31.98 C 157.891 33.968 157.261 35.877 157.321 37.708 C 157.361 38.76 157.631 39.598 158.131 40.221 C 158.652 40.845 159.262 41.293 159.963 41.566 C 160.683 41.838 161.364 41.975 162.004 41.975 C 163.445 41.975 164.896 41.546 166.357 40.689 C 167.818 39.812 169.209 38.702 170.53 37.358 C 171.871 35.994 173.072 34.552 174.133 33.033 C 175.194 31.493 176.054 30.052 176.715 28.707 C 177.375 27.363 177.746 26.282 177.826 25.464 C 177.906 24.801 178.056 24.47 178.276 24.47 C 178.476 24.47 178.576 24.782 178.576 25.405 C 178.636 27.12 178.296 28.98 177.555 30.987 C 176.815 32.974 175.714 34.864 174.253 36.656 C 172.812 38.449 171.051 39.91 168.969 41.04 C 166.888 42.17 164.546 42.735 161.944 42.735 C 160.643 42.735 159.382 42.296 158.161 41.42 C 156.96 40.523 156.34 39.335 156.3 37.854 C 156.24 35.926 156.73 34.065 157.771 32.273 C 158.812 30.461 160.253 28.795 162.094 27.276 C 163.936 25.756 166.027 24.431 168.369 23.301 C 170.73 22.152 173.202 21.265 175.784 20.642 C 178.366 19.999 180.908 19.678 183.41 19.678 C 188.013 19.678 191.746 20.574 194.608 22.366 C 196.149 21.606 197.48 21.051 198.601 20.7 C 199.722 20.35 200.562 20.174 201.123 20.174 C 201.503 20.174 201.703 20.272 201.723 20.467 C 201.723 20.7 201.443 20.856 200.882 20.934 C 199.341 21.246 197.61 21.976 195.689 23.126 C 198.01 24.957 199.231 27.305 199.351 30.169 C 199.431 31.805 198.971 33.432 197.97 35.049 C 196.97 36.646 195.528 38.098 193.647 39.403 C 191.786 40.689 189.584 41.702 187.042 42.442 C 187.623 43.027 187.923 43.787 187.943 44.722 C 188.003 45.598 187.903 46.485 187.643 47.381 C 187.383 48.258 186.812 49.29 185.932 50.479 C 185.051 51.648 183.71 53.109 181.909 54.862 C 181.228 55.427 180.768 55.953 180.528 56.44 C 180.287 56.908 180.177 57.336 180.197 57.726 C 180.197 58.31 180.418 58.817 180.858 59.246 C 181.298 59.655 182.129 59.859 183.35 59.859 C 184.951 59.859 186.622 59.285 188.363 58.135 C 190.125 56.986 191.766 55.408 193.287 53.401 C 194.808 51.394 196.009 49.125 196.889 46.592 C 197.05 46.008 197.19 45.715 197.31 45.715 C 197.67 45.715 197.85 45.998 197.85 46.563 C 197.87 48.258 197.4 49.943 196.439 51.618 C 195.478 53.274 194.238 54.784 192.716 56.148 C 191.195 57.512 189.584 58.612 187.883 59.45 C 186.202 60.268 184.641 60.678 183.2 60.678 C 181.578 60.678 180.327 60.346 179.447 59.684 C 178.566 59.002 178.106 58.135 178.066 57.083 C 178.026 55.641 178.266 54.346 178.786 53.196 C 179.307 52.047 179.977 50.995 180.798 50.04 C 181.618 49.086 182.439 48.199 183.26 47.381 C 184.32 46.524 185.001 45.813 185.301 45.248 C 185.601 44.683 185.741 44.128 185.721 43.582 C 185.721 43.309 185.661 43.056 185.541 42.822 C 185.041 42.939 184.561 43.027 184.1 43.085 C 183.64 43.124 183.21 43.144 182.809 43.144 C 181.949 43.144 181.298 43.037 180.858 42.822 C 180.418 42.588 180.187 42.325 180.167 42.033 C 180.147 41.799 180.327 41.575 180.708 41.361 C 181.108 41.127 181.688 41.01 182.449 41.01 C 183.109 41.01 183.75 41.069 184.37 41.186 C 185.011 41.283 185.581 41.468 186.082 41.741 C 187.463 41.176 188.794 40.358 190.075 39.286 C 191.355 38.215 192.496 37.007 193.497 35.663 C 194.518 34.318 195.308 32.955 195.869 31.571 C 196.449 30.188 196.719 28.902 196.679 27.714 C 196.619 26.155 195.989 24.821 194.788 23.71 C 192.406 25.288 189.904 27.451 187.282 30.198 C 184.661 32.925 182.079 36.091 179.537 39.695 C 175.654 44.994 172.111 49.173 168.909 52.232 C 165.727 55.291 162.835 57.463 160.233 58.749 C 157.631 60.035 155.249 60.678 153.088 60.678 Z M 182.659 42.472 C 183.36 42.472 184.09 42.364 184.851 42.15 C 184.29 41.838 183.49 41.683 182.449 41.683 C 181.648 41.683 181.248 41.78 181.248 41.975 C 181.248 42.053 181.368 42.16 181.608 42.296 C 181.849 42.413 182.199 42.472 182.659 42.472 Z" fill="black"/>
    <path d="M 109.791 39.287 C 108.07 39.287 106.688 38.909 105.647 38.154 C 104.627 37.377 104.118 36.276 104.118 34.851 C 104.118 33.038 104.854 31.224 106.326 29.411 C 107.821 27.576 109.927 25.914 112.645 24.424 C 115.363 22.913 118.557 21.737 122.226 20.895 C 124.219 20.463 126.246 20.182 128.307 20.053 C 130.368 19.923 132.429 19.859 134.491 19.859 C 136.937 19.859 139.417 20.053 141.931 20.441 C 144.445 20.808 146.868 20.992 149.201 20.992 C 152.44 20.992 155.068 20.452 157.083 19.373 C 159.099 18.293 160.628 16.912 161.67 15.228 C 161.851 14.969 161.998 14.818 162.111 14.775 C 162.225 14.71 162.327 14.678 162.417 14.678 C 162.621 14.678 162.723 14.753 162.723 14.904 C 162.723 14.991 162.712 15.077 162.689 15.163 C 162.666 15.25 162.576 15.379 162.417 15.552 C 160.741 18.099 158.476 20.128 155.622 21.639 C 152.791 23.129 149.235 23.874 144.955 23.874 C 141.829 23.874 138.681 23.625 135.51 23.129 C 132.362 22.611 129.236 22.352 126.133 22.352 C 123.551 22.352 121.003 22.719 118.489 23.453 C 115.997 24.165 113.744 25.115 111.728 26.302 C 109.712 27.49 108.104 28.806 106.904 30.253 C 105.703 31.678 105.103 33.102 105.103 34.527 C 105.103 35.585 105.386 36.438 105.952 37.085 C 106.541 37.733 107.459 38.057 108.704 38.057 C 110.29 38.057 111.92 37.668 113.596 36.891 C 115.295 36.114 116.881 35.121 118.353 33.912 C 119.825 32.703 121.048 31.44 122.022 30.123 C 122.996 28.785 123.551 27.565 123.687 26.464 C 123.8 26.011 123.902 25.784 123.993 25.784 C 124.219 25.784 124.332 26.011 124.332 26.464 C 124.332 28.083 123.891 29.659 123.007 31.192 C 122.147 32.703 120.992 34.074 119.542 35.304 C 118.115 36.513 116.552 37.485 114.854 38.219 C 113.155 38.931 111.467 39.287 109.791 39.287 Z M 94.605 65.678 C 93.291 65.678 92.034 65.462 90.834 65.03 C 89.633 64.598 88.648 64.026 87.878 63.314 C 87.108 62.601 86.723 61.813 86.723 60.95 C 86.723 60 87.074 59.32 87.776 58.91 C 88.478 58.478 89.18 58.262 89.882 58.262 C 90.267 58.262 90.652 58.381 91.037 58.619 C 91.422 58.856 91.615 59.234 91.615 59.752 C 91.615 60.162 91.422 60.54 91.037 60.885 C 90.652 61.209 90.199 61.371 89.678 61.371 C 89.384 61.371 89.101 61.349 88.829 61.306 C 88.557 61.263 88.308 61.177 88.082 61.047 L 88.082 61.209 C 88.082 62.267 88.738 63.13 90.052 63.799 C 91.388 64.469 92.997 64.803 94.876 64.803 C 96.394 64.803 97.98 64.555 99.633 64.059 C 101.287 63.562 103.053 62.634 104.933 61.274 C 106.836 59.914 108.874 57.949 111.048 55.38 C 113.245 52.812 115.635 49.455 118.217 45.31 C 118.217 45.288 118.274 45.202 118.387 45.051 C 112.928 46.217 108.682 47.652 105.647 49.358 C 102.634 51.041 100.618 52.714 99.599 54.377 C 99.35 54.808 99.135 55.024 98.954 55.024 C 98.795 55.024 98.716 54.938 98.716 54.765 C 98.716 54.592 98.795 54.409 98.954 54.215 C 99.543 52.919 100.766 51.603 102.623 50.264 C 104.503 48.904 106.847 47.652 109.655 46.508 C 112.487 45.342 115.624 44.425 119.066 43.756 C 119.134 43.756 119.191 43.745 119.236 43.723 C 121.999 39.622 124.899 36.286 127.934 33.718 C 130.969 31.127 133.811 29.227 136.461 28.019 C 139.111 26.788 141.217 26.173 142.78 26.173 C 143.301 26.173 143.562 26.27 143.562 26.464 C 143.562 26.551 143.471 26.615 143.29 26.659 C 143.109 26.702 142.724 26.81 142.135 26.982 C 139.485 27.716 136.608 29.454 133.505 32.196 C 130.402 34.916 127.424 38.348 124.57 42.493 C 125.974 42.147 127.311 41.802 128.579 41.457 C 129.847 41.111 130.901 40.798 131.739 40.518 C 131.942 40.388 132.146 40.226 132.35 40.032 C 132.554 39.838 132.735 39.568 132.894 39.222 C 133.166 39.222 133.664 39.244 134.389 39.287 C 135.113 39.33 135.838 39.395 136.563 39.481 C 137.288 39.546 137.786 39.622 138.058 39.708 C 137.016 40.161 135.917 40.863 134.762 41.813 C 133.607 42.763 132.531 43.864 131.535 45.116 C 130.538 46.346 129.757 47.652 129.191 49.034 C 128.987 49.379 128.794 49.552 128.613 49.552 C 128.341 49.552 128.205 49.401 128.205 49.099 C 128.205 48.969 128.296 48.645 128.477 48.127 C 128.998 46.832 129.474 45.731 129.904 44.824 C 130.357 43.896 130.867 43.022 131.433 42.201 C 130.527 42.482 129.36 42.773 127.934 43.076 C 126.529 43.378 125.08 43.68 123.585 43.982 L 123.449 44.209 C 119.916 49.692 116.598 53.999 113.495 57.129 C 110.414 60.259 107.345 62.472 104.288 63.767 C 101.253 65.041 98.025 65.678 94.605 65.678 Z" fill="black"/>
    <path d="M 249.584 30.826 C 249.584 31.764 249.828 32.591 250.316 33.307 C 250.83 33.999 251.485 34.628 252.282 35.196 C 253.104 35.764 253.965 36.332 254.864 36.9 C 255.841 37.492 256.766 38.122 257.639 38.789 C 258.539 39.431 259.271 40.184 259.836 41.048 C 260.428 41.887 260.723 42.9 260.723 44.085 C 260.723 45.394 260.35 46.542 259.605 47.529 C 258.886 48.517 257.896 49.295 256.637 49.863 C 255.404 50.406 253.991 50.678 252.398 50.678 C 251.627 50.678 250.817 50.603 249.969 50.455 C 249.147 50.307 248.389 50.122 247.695 49.9 C 247.027 49.678 246.539 49.443 246.23 49.196 C 246.128 49.122 246.038 49.048 245.961 48.974 C 245.884 48.875 245.845 48.715 245.845 48.492 L 245.729 42.603 C 245.704 42.48 245.755 42.418 245.884 42.418 C 246.038 42.394 246.128 42.431 246.153 42.529 C 246.539 43.295 246.963 44.11 247.425 44.974 C 247.888 45.813 248.402 46.591 248.967 47.307 C 249.558 48.023 250.213 48.616 250.933 49.085 C 251.652 49.529 252.475 49.752 253.4 49.752 C 253.991 49.752 254.556 49.653 255.096 49.455 C 255.635 49.258 256.072 48.9 256.406 48.381 C 256.766 47.863 256.946 47.147 256.946 46.233 C 256.946 45.073 256.676 44.085 256.136 43.27 C 255.597 42.431 254.903 41.702 254.055 41.085 C 253.207 40.443 252.32 39.838 251.395 39.27 C 250.496 38.702 249.635 38.122 248.813 37.529 C 247.991 36.912 247.323 36.221 246.809 35.455 C 246.295 34.665 246.038 33.727 246.038 32.641 C 246.038 31.258 246.436 30.134 247.233 29.27 C 248.055 28.381 249.083 27.727 250.316 27.307 C 251.575 26.887 252.847 26.678 254.132 26.678 C 255.057 26.678 255.982 26.764 256.907 26.937 C 257.832 27.085 258.565 27.27 259.104 27.492 C 259.361 27.591 259.515 27.702 259.567 27.826 C 259.644 27.949 259.682 28.085 259.682 28.233 L 259.682 33.678 C 259.682 33.752 259.618 33.813 259.49 33.863 C 259.387 33.887 259.31 33.863 259.258 33.789 C 259.104 33.492 258.886 33.011 258.603 32.344 C 258.32 31.653 257.948 30.937 257.485 30.196 C 257.023 29.455 256.432 28.826 255.712 28.307 C 254.993 27.764 254.119 27.492 253.091 27.492 C 252.449 27.492 251.858 27.616 251.318 27.863 C 250.804 28.11 250.38 28.48 250.046 28.974 C 249.738 29.443 249.584 30.06 249.584 30.826 Z" fill="black"/>
    <path d="M 222.701 38.8 L 223.297 37.781 L 231.481 37.781 L 231.759 38.8 L 222.701 38.8 Z M 242.524 49.241 C 242.657 49.241 242.723 49.314 242.723 49.459 C 242.723 49.605 242.657 49.678 242.524 49.678 C 241.73 49.678 240.896 49.653 240.022 49.605 C 239.174 49.556 238.353 49.532 237.559 49.532 C 236.658 49.532 235.877 49.556 235.215 49.605 C 234.553 49.653 233.811 49.678 232.99 49.678 C 232.884 49.678 232.831 49.605 232.831 49.459 C 232.831 49.314 232.884 49.241 232.99 49.241 C 234.076 49.241 234.698 49.047 234.857 48.659 C 235.043 48.247 234.804 47.446 234.142 46.258 L 226.078 31.669 L 228.024 28.54 L 220.119 44.511 C 219.404 45.967 219.391 47.119 220.079 47.968 C 220.768 48.817 221.854 49.241 223.337 49.241 C 223.469 49.241 223.535 49.314 223.535 49.459 C 223.535 49.605 223.469 49.678 223.337 49.678 C 222.542 49.678 221.814 49.653 221.152 49.605 C 220.49 49.556 219.655 49.532 218.649 49.532 C 217.616 49.532 216.782 49.556 216.146 49.605 C 215.537 49.653 214.782 49.678 213.882 49.678 C 213.776 49.678 213.723 49.605 213.723 49.459 C 213.723 49.314 213.776 49.241 213.882 49.241 C 214.597 49.241 215.206 49.108 215.709 48.841 C 216.239 48.55 216.755 48.04 217.259 47.313 C 217.788 46.561 218.384 45.506 219.046 44.148 L 227.667 26.794 C 227.693 26.721 227.812 26.685 228.024 26.685 C 228.236 26.661 228.355 26.697 228.382 26.794 L 238.313 44.693 C 238.949 45.833 239.492 46.743 239.942 47.422 C 240.419 48.077 240.856 48.55 241.253 48.841 C 241.677 49.108 242.101 49.241 242.524 49.241 Z" fill="black"/>
    <path d="M 204.869 39.447 L 209.985 31.756 C 210.901 30.382 211.247 29.266 211.025 28.407 C 210.831 27.548 210.082 27.119 208.779 27.119 C 208.696 27.119 208.654 27.046 208.654 26.898 C 208.654 26.751 208.696 26.678 208.779 26.678 C 209.666 26.678 210.498 26.702 211.275 26.751 C 212.052 26.776 213.092 26.788 214.395 26.788 C 215.088 26.788 215.643 26.776 216.059 26.751 C 216.503 26.702 217.03 26.678 217.64 26.678 C 217.695 26.678 217.723 26.751 217.723 26.898 C 217.723 27.046 217.695 27.119 217.64 27.119 C 217.085 27.119 216.42 27.34 215.643 27.782 C 214.866 28.199 214.09 28.775 213.313 29.511 C 212.537 30.247 211.816 31.106 211.15 32.087 L 205.742 40.073 L 204.869 39.447 Z M 202.456 39.594 L 196.133 30.91 C 195.023 29.388 194.136 28.383 193.47 27.892 C 192.832 27.377 192.292 27.119 191.848 27.119 C 191.765 27.119 191.723 27.046 191.723 26.898 C 191.723 26.751 191.765 26.678 191.848 26.678 C 192.264 26.678 192.694 26.702 193.137 26.751 C 193.581 26.776 194.011 26.788 194.427 26.788 C 195.204 26.788 196.036 26.788 196.923 26.788 C 197.81 26.763 198.642 26.739 199.419 26.714 C 200.223 26.69 200.875 26.678 201.374 26.678 C 201.43 26.678 201.457 26.751 201.457 26.898 C 201.457 27.046 201.43 27.119 201.374 27.119 C 200.57 27.119 200.085 27.364 199.918 27.855 C 199.78 28.346 199.96 28.922 200.459 29.585 L 206.449 37.938 L 202.456 39.594 Z M 202.206 38.27 L 206.824 37.938 L 206.824 46.697 C 206.824 47.408 206.893 47.948 207.032 48.316 C 207.17 48.684 207.448 48.929 207.864 49.052 C 208.28 49.175 208.918 49.236 209.777 49.236 C 209.861 49.236 209.902 49.31 209.902 49.457 C 209.902 49.604 209.861 49.678 209.777 49.678 C 209.056 49.678 208.252 49.665 207.365 49.641 C 206.505 49.616 205.548 49.604 204.494 49.604 C 203.496 49.604 202.539 49.616 201.624 49.641 C 200.709 49.665 199.89 49.678 199.169 49.678 C 199.114 49.678 199.086 49.604 199.086 49.457 C 199.086 49.31 199.114 49.236 199.169 49.236 C 200.029 49.236 200.667 49.175 201.083 49.052 C 201.527 48.929 201.818 48.684 201.957 48.316 C 202.123 47.948 202.206 47.408 202.206 46.697 L 202.206 38.27 Z" fill="black"/>
    <path d="M 152.586 50.678 C 151.737 50.678 150.675 50.64 149.401 50.563 C 148.127 50.487 146.96 50.449 145.898 50.449 C 144.943 50.449 144.027 50.462 143.151 50.487 C 142.276 50.513 141.493 50.525 140.803 50.525 C 140.75 50.525 140.723 50.449 140.723 50.297 C 140.723 50.145 140.75 50.069 140.803 50.069 C 141.625 50.069 142.236 50.006 142.634 49.879 C 143.058 49.752 143.337 49.498 143.47 49.118 C 143.629 48.738 143.709 48.18 143.709 47.445 L 143.709 29.834 C 143.709 29.099 143.642 28.554 143.51 28.199 C 143.377 27.819 143.098 27.565 142.674 27.438 C 142.276 27.286 141.678 27.21 140.882 27.21 C 140.803 27.21 140.763 27.134 140.763 26.982 C 140.763 26.83 140.803 26.754 140.882 26.754 C 141.572 26.754 142.342 26.779 143.191 26.83 C 144.04 26.855 144.956 26.868 145.938 26.868 C 146.893 26.868 147.942 26.842 149.083 26.792 C 150.224 26.716 151.206 26.678 152.029 26.678 C 154.789 26.678 157.191 27.185 159.234 28.199 C 161.278 29.213 162.87 30.595 164.011 32.345 C 165.152 34.094 165.723 36.059 165.723 38.24 C 165.723 40.142 165.378 41.866 164.688 43.413 C 163.998 44.934 163.043 46.24 161.822 47.33 C 160.601 48.395 159.194 49.22 157.602 49.803 C 156.036 50.386 154.364 50.678 152.586 50.678 Z M 152.188 49.803 C 153.86 49.803 155.346 49.397 156.647 48.586 C 157.947 47.749 158.969 46.532 159.712 44.934 C 160.455 43.337 160.827 41.384 160.827 39.077 C 160.827 36.922 160.481 34.969 159.791 33.22 C 159.101 31.47 158.133 30.088 156.885 29.074 C 155.638 28.034 154.152 27.514 152.427 27.514 C 150.888 27.514 149.786 27.654 149.123 27.933 C 148.459 28.212 148.127 28.871 148.127 29.911 L 148.127 47.026 C 148.127 47.964 148.38 48.662 148.884 49.118 C 149.415 49.575 150.516 49.803 152.188 49.803 Z" fill="black"/>
    <path d="M 135.31 51.801 L 147.723 52.178 L 135.31 52.554 L 140.646 58.6 L 134.6 53.265 L 134.223 65.678 L 133.846 53.265 L 127.8 58.6 L 133.136 52.554 L 120.723 52.178 L 133.136 51.801 L 127.8 45.755 L 133.846 51.09 L 134.223 38.678 L 134.6 51.09 L 140.646 45.755 L 135.31 51.801 Z" fill="#0F0F0F"/>
    <g filter="url(#filter0_d_0_1)" transform="matrix(1, 0, 0, 1, -3.277965, -0.323399)">
      <path d="M51.7186 32.4506L43.4834 33.2988L43.4604 33.303C37.8051 34.2947 37.8502 34.9347 37.0658 40.1702C37.0161 40.5042 36.9633 40.8569 36.9058 41.2296L36.9035 41.2441L36.0294 48.6755L35.1554 41.2441L35.1531 41.2296C35.0956 40.8569 35.0428 40.5042 34.9931 40.1702C34.2087 34.9347 34.2538 34.2947 28.5985 33.303L28.575 33.2988L20.3403 32.4506L28.5755 31.6023L28.5989 31.5981C34.2542 30.6068 34.2092 29.9664 34.9936 24.7309C35.0432 24.3969 35.0961 24.0442 35.1536 23.6715L35.1559 23.657L36.0294 16.2256L36.9035 23.6575L36.9058 23.672C36.9633 24.0447 37.0161 24.3969 37.0658 24.7314C37.8502 29.9673 37.8051 30.6073 43.4604 31.5985L43.4834 31.6027L51.7186 32.451V32.4506Z" fill="white"/>
    </g>
  </symbol>
  <use href="#logo-symbol-wordmark"/>
</svg>