<svg xmlns="http://www.w3.org/2000/svg" height="24" viewBox="-1 -1.5 24 24" width="24"><path d="M20.9205 12.2567V11.4083H19.851V6.5076H18.6815V5.23004H17.4021V3.95247H15.6929V2.6749H12.0645V0H8.64607V1.06797H9.92548V2.66492H5.86733V3.94249H4.58791V5.22006H3.30849V6.49762H2.13903V11.3983H1.06951V12.2467H0V14.3826H1.06951V13.5342H2.13903V16.1991H3.30849V17.5865H4.80781V18.8641H5.65743V19.932H4.58791V21H6.72694V19.932H7.4766V18.8641H14.5234V19.932H15.2731V21H17.4121V19.932H16.3426V18.8641H17.1922V17.5865H18.6915V16.1991H19.861V13.5342H20.9305V14.3826H22V12.2467H20.9305L20.9205 12.2567ZM17.7119 15.4606H16.5525V16.7381H5.44752V15.4606H4.27805V7.35599H5.44752V6.07842H6.72694V4.80086H9.92548V7.46578H13.3439V6.39781H12.0645V4.80086H15.2631V6.07842H16.5425V7.35599H17.7119V15.4606ZM8.22674 12.7959H7.15674V14.9328H8.22674V12.7959ZM13.7737 12.7959H14.8437V14.9328H13.7737V12.7959Z"/></svg>
